<?xml version="1.0" standalone="no"?>
<!DOCTYPE svg PUBLIC "-//W3C//DTD SVG 20010904//EN"
 "http://www.w3.org/TR/2001/REC-SVG-20010904/DTD/svg10.dtd">
<svg version="1.0" xmlns="http://www.w3.org/2000/svg"
 width="512.000000pt" height="512.000000pt" viewBox="0 0 512.000000 512.000000"
 preserveAspectRatio="xMidYMid meet">
<metadata>
Created by potrace 1.16, written by Peter Selinger 2001-2019
</metadata>
<g transform="translate(0.000000,512.000000) scale(0.100000,-0.100000)"
fill="#000000" stroke="none">
<path d="M1850 5108 c0 -5 -15 -8 -34 -8 -57 0 -195 -30 -311 -67 -760 -244
-1338 -1054 -1470 -2062 -8 -63 -15 -134 -15 -158 0 -25 -3 -42 -7 -40 -9 6
-11 -425 -2 -433 3 -3 10 -60 17 -127 23 -238 65 -427 152 -685 157 -466 406
-844 740 -1123 220 -183 519 -329 766 -372 54 -9 101 -19 104 -22 8 -9 380 -7
380 2 0 4 9 7 20 7 37 0 173 30 255 57 512 166 936 570 1222 1165 l32 68 -39
0 c-37 0 -40 -3 -60 -46 -31 -71 -116 -217 -192 -331 -288 -432 -688 -718
-1138 -814 -152 -33 -429 -33 -580 0 -154 33 -269 74 -410 147 -163 84 -288
174 -427 307 -269 259 -449 541 -598 942 -120 322 -174 641 -174 1035 -1 514
84 893 298 1335 283 583 760 992 1290 1105 56 12 111 20 121 17 11 -3 22 -1
25 3 6 10 324 10 330 0 3 -5 13 -6 23 -3 10 2 65 -5 122 -17 510 -104 996
-515 1275 -1077 l60 -121 38 -1 c20 -1 37 3 37 8 0 16 -115 235 -180 344 -141
235 -385 503 -590 649 -126 89 -338 197 -477 242 -113 36 -257 66 -320 66 -19
0 -32 3 -30 8 3 4 -53 7 -124 7 -71 0 -129 -3 -129 -7z"/>
<path d="M4630 3559 c-173 -9 -290 -56 -406 -161 -141 -130 -243 -341 -281
-583 -32 -207 -16 -519 38 -714 32 -121 110 -268 182 -347 117 -127 210 -171
450 -211 96 -15 442 78 486 131 9 11 -48 269 -62 282 -3 3 -33 -9 -68 -26
-106 -54 -137 -62 -264 -66 -144 -4 -197 8 -276 65 -136 97 -211 283 -225 558
-15 281 47 512 172 643 100 105 220 145 368 122 78 -12 180 -49 228 -83 14
-11 30 -19 36 -19 8 0 26 55 68 209 l17 63 -24 19 c-43 34 -142 76 -219 94
-41 10 -82 20 -90 24 -8 3 -67 3 -130 0z"/>
<path d="M1787 3544 c-294 -71 -504 -361 -558 -771 -17 -136 -7 -451 21 -576
45 -212 118 -358 235 -472 99 -97 163 -127 368 -174 78 -18 128 -13 311 30 80
19 208 72 226 94 11 13 -51 280 -66 279 -5 0 -43 -16 -85 -36 -97 -46 -158
-58 -294 -55 -100 2 -115 5 -168 31 -73 38 -155 123 -196 207 -97 197 -116
540 -45 785 98 339 369 461 682 307 42 -21 81 -38 86 -38 5 0 26 61 46 135
l37 135 -35 23 c-136 94 -393 138 -565 96z"/>
<path d="M2648 2550 l2 -970 130 0 130 0 0 435 c0 239 4 435 8 435 14 0 134
-129 219 -237 108 -136 224 -310 323 -487 l82 -146 159 0 c90 0 159 4 159 9 0
5 -4 11 -8 13 -5 2 -41 66 -80 143 -149 290 -352 589 -559 823 l-52 59 121
159 c172 227 518 713 518 728 0 4 -71 6 -157 6 l-158 0 -55 -82 c-182 -269
-505 -710 -514 -701 -3 4 -6 181 -6 395 l0 388 -132 0 -133 0 3 -970z"/>
</g>
</svg>
